<?xml version="1.0" encoding="utf-8"?>
<svg version="1.1" xmlns:xlink="http://www.w3.org/1999/xlink" width="720px" height="360px" xmlns="http://www.w3.org/2000/svg">
  <defs>
    <linearGradient gradientUnits="userSpaceOnUse" x1="360" y1="0" x2="360" y2="360" id="LinearGradient103">
      <stop id="Stop104" stop-color="#ffffff" offset="0" />
      <stop id="Stop105" stop-color="#ffffff" stop-opacity="0.898039215686275" offset="1" />
    </linearGradient>
  </defs>
  <g transform="matrix(1 0 0 1 180 0 )">
    <path d="M 90 360  L 0 360  L 0 0  L 90 0  L 90 360  Z M 405 360  L 315 360  L 315 0  L 405 0  L 405 360  Z M 607 0  L 607 90  L 562 90  L 562 360  L 472 360  L 472 90  L 427 90  L 427 0  L 607 0  Z M 630 0  L 720 0  L 720 360  L 630 360  L 630 0  Z M 202.5 180  L 292.5 360  L 202.5 360  L 112.5 180  L 202.5 0  L 292.5 0  L 202.5 180  Z " fill-rule="nonzero" fill="url(#LinearGradient103)" stroke="none" transform="matrix(1 0 0 1 -180 0 )" />
  </g>
</svg>